<?xml version="1.0" standalone="no"?>
<!DOCTYPE svg PUBLIC "-//W3C//DTD SVG 20010904//EN"
 "http://www.w3.org/TR/2001/REC-SVG-20010904/DTD/svg10.dtd">
<svg version="1.0" xmlns="http://www.w3.org/2000/svg"
 width="70.000000pt" height="70.000000pt" viewBox="0 0 70.000000 70.000000"
 preserveAspectRatio="xMidYMid meet">

<g transform="translate(0.000000,70.000000) scale(0.100000,-0.100000)"
fill="#000000" stroke="none">
<path d="M259 674 c-113 -34 -205 -133 -229 -243 -32 -152 40 -300 179 -368
81 -40 201 -40 282 0 273 134 237 525 -55 612 -61 18 -117 18 -177 -1z m241
-140 c39 -8 72 -20 75 -25 15 -23 -10 -25 -66 -8 -42 13 -91 19 -159 19 -68 0
-117 -6 -159 -19 -38 -12 -63 -15 -67 -9 -29 46 232 75 376 42z m-177 -51 l29
-28 24 28 c22 26 28 28 72 21 26 -3 62 -13 81 -21 l35 -14 -21 -21 c-21 -20
-23 -20 -58 -4 -70 34 -69 36 -117 -251 -6 -40 -14 -73 -18 -73 -3 0 -19 71
-34 158 -16 86 -31 163 -34 170 -6 16 -27 15 -69 -4 -33 -16 -35 -16 -55 4
l-20 20 21 12 c20 10 86 26 120 29 8 1 28 -11 44 -26z"/>
</g>
</svg>
